<?xml version="1.0" standalone="no"?>
<!DOCTYPE svg PUBLIC "-//W3C//DTD SVG 20010904//EN"
 "http://www.w3.org/TR/2001/REC-SVG-20010904/DTD/svg10.dtd">
<svg version="1.0" xmlns="http://www.w3.org/2000/svg"
 width="900.000000pt" height="900.000000pt" viewBox="0 0 900.000000 900.000000"
 preserveAspectRatio="xMidYMid meet">

<g transform="translate(0.000000,900.000000) scale(0.100000,-0.100000)"
fill="#000000" stroke="none">
<path d="M4955 7334 c-78 -7 -165 -17 -195 -23 -30 -6 -84 -16 -120 -22 -93
-16 -285 -71 -435 -126 -75 -27 -100 -37 -185 -76 -30 -14 -71 -32 -90 -41
-19 -9 -42 -20 -50 -25 -8 -5 -26 -14 -40 -21 -29 -13 -72 -38 -115 -64 -16
-11 -46 -29 -65 -41 -156 -98 -420 -296 -420 -316 0 -17 58 -19 495 -19 l463
0 79 31 c43 17 83 35 88 39 6 4 35 15 65 23 30 8 75 22 100 30 111 36 187 57
206 57 11 0 65 10 120 22 89 20 128 22 379 23 252 0 293 -2 405 -23 122 -23
230 -49 320 -79 25 -8 65 -21 90 -28 96 -28 329 -138 450 -211 183 -111 314
-216 487 -390 89 -90 164 -173 168 -184 8 -26 -25 -65 -63 -75 -14 -3 -55 -20
-91 -36 -115 -53 -234 -107 -306 -139 -86 -38 -138 -62 -191 -88 -33 -17 -58
-23 -75 -19 -13 4 -64 43 -114 88 -49 44 -103 87 -119 96 -16 8 -52 31 -78 50
-51 35 -246 133 -267 133 -6 0 -28 9 -48 20 -21 11 -46 20 -55 20 -10 0 -44 9
-75 20 -189 65 -486 74 -2190 66 -1387 -7 -1393 -7 -1440 -28 -118 -52 -183
-145 -183 -261 0 -51 6 -76 26 -114 34 -64 79 -111 134 -137 l45 -21 1680 -5
c1570 -5 1684 -7 1735 -23 30 -10 73 -22 95 -28 46 -12 211 -90 258 -123 172
-117 250 -203 382 -418 23 -37 55 -47 75 -23 7 8 19 15 27 15 13 0 131 51 163
71 8 5 22 12 30 15 8 3 33 13 55 23 170 79 268 121 280 121 7 0 23 8 36 19 13
10 38 22 56 25 17 4 37 14 44 22 6 8 17 14 24 14 6 0 34 11 61 25 27 14 54 25
59 25 6 0 24 7 40 16 17 9 93 44 170 79 77 35 154 70 170 79 17 9 34 16 39 16
4 0 37 14 72 30 35 17 94 44 132 61 213 98 212 97 212 128 0 15 -8 39 -19 52
-10 13 -21 34 -25 47 -28 87 -231 399 -364 558 -219 260 -519 519 -767 658
-16 9 -48 28 -70 41 -56 33 -264 135 -276 135 -6 0 -27 9 -47 19 -20 11 -68
30 -107 44 -38 13 -86 30 -105 37 -19 7 -66 21 -104 31 -38 10 -81 23 -95 29
-14 5 -64 17 -111 25 -47 8 -107 19 -135 25 -87 18 -375 40 -510 38 -71 0
-193 -7 -270 -14z"/>
<path d="M852 4620 c-64 -23 -107 -58 -147 -118 -28 -43 -30 -52 -30 -147 0
-94 2 -103 31 -150 19 -32 51 -64 90 -90 l59 -40 2089 -3 2090 -2 50 26 c68
35 89 55 125 124 27 50 31 68 31 134 0 92 -28 155 -95 214 -82 72 98 67 -2180
69 -1998 2 -2062 1 -2113 -17z"/>
<path d="M6217 3872 c-10 -10 -17 -22 -17 -27 0 -8 -9 -23 -75 -123 -64 -97
-222 -243 -317 -293 -165 -87 -233 -114 -342 -137 -73 -14 -250 -17 -1741 -22
-1814 -6 -1682 0 -1763 -67 -193 -158 -93 -473 155 -488 141 -9 2398 -13 2863
-5 448 7 492 9 580 30 102 23 279 77 295 90 6 4 28 13 50 20 22 7 47 18 55 25
8 7 26 16 40 20 13 4 38 17 55 28 74 51 85 57 94 57 11 0 216 166 245 199 24
26 48 27 105 0 25 -12 64 -29 86 -40 22 -10 66 -30 97 -44 32 -14 81 -36 110
-49 29 -13 76 -34 103 -46 177 -76 265 -121 265 -135 0 -23 -145 -189 -253
-290 -100 -92 -310 -257 -351 -276 -12 -5 -41 -22 -66 -38 -52 -33 -241 -128
-315 -159 -203 -82 -438 -145 -610 -163 -293 -30 -344 -30 -646 0 -153 16
-389 76 -544 139 -168 68 -106 62 -635 62 -503 0 -501 0 -467 -42 6 -8 30 -28
52 -44 22 -16 71 -54 110 -84 98 -78 215 -156 300 -200 22 -12 63 -35 90 -51
28 -16 61 -34 75 -39 14 -5 32 -15 40 -20 8 -6 26 -15 40 -21 14 -6 43 -19 65
-30 22 -10 44 -19 49 -19 5 0 28 -9 50 -19 52 -25 146 -58 211 -75 28 -7 73
-20 100 -29 76 -25 230 -59 304 -68 36 -4 113 -14 171 -23 142 -21 489 -21
625 0 55 8 133 19 173 23 77 9 226 42 302 67 25 9 70 21 100 29 66 16 160 49
216 76 22 10 46 19 53 19 6 0 29 9 49 19 20 11 48 24 62 30 14 6 32 15 40 19
8 5 31 17 50 26 89 46 186 99 200 110 8 7 26 17 40 24 28 13 111 72 256 181
203 153 533 513 664 726 19 32 45 74 57 94 13 20 33 56 46 81 13 25 40 76 61
114 22 41 36 80 34 95 -3 26 -11 32 -103 72 -27 12 -79 35 -115 51 -112 52
-236 107 -305 138 -27 12 -75 33 -105 47 -57 26 -91 42 -195 88 -33 15 -78 35
-100 45 -22 10 -65 29 -95 43 -30 14 -98 46 -152 71 -53 25 -101 46 -108 46
-6 0 -28 9 -48 20 -20 11 -64 31 -97 46 -84 36 -164 73 -206 95 -46 24 -91 24
-112 1z"/>
</g>
</svg>
