<?xml version="1.0" standalone="no"?>
<!DOCTYPE svg PUBLIC "-//W3C//DTD SVG 20010904//EN"
 "http://www.w3.org/TR/2001/REC-SVG-20010904/DTD/svg10.dtd">
<svg version="1.0" xmlns="http://www.w3.org/2000/svg"
 width="1748.000000pt" height="1240.000000pt" viewBox="0 0 1748.000000 1240.000000"
 preserveAspectRatio="xMidYMid meet">

<g transform="translate(0.000000,1240.000000) scale(0.100000,-0.100000)"
fill="#000000" stroke="none">
<path d="M2289 7145 c-195 -37 -361 -126 -505 -269 -269 -270 -354 -650 -224
-1008 45 -124 109 -225 206 -327 131 -138 274 -223 455 -273 119 -32 364 -32
484 0 330 90 583 340 681 669 37 126 44 319 16 455 -76 367 -342 642 -717 743
-85 23 -300 28 -396 10z m147 -329 l79 -43 5 -201 5 -201 220 95 c121 52 229
97 240 100 21 5 179 -74 176 -89 0 -4 -1 -34 -1 -68 l0 -60 -60 -26 c-32 -14
-57 -30 -54 -34 2 -4 40 -27 84 -50 l80 -43 0 -95 -1 -96 -477 -204 c-262
-113 -496 -209 -520 -215 -59 -13 -108 12 -122 63 -6 21 -10 207 -10 456 l0
420 -115 63 c-64 35 -113 67 -111 71 3 4 45 25 94 45 l90 38 127 -68 127 -67
-4 -283 c-2 -156 -1 -284 3 -284 4 0 26 9 50 19 24 11 47 17 53 14 5 -4 6 -1
0 8 -5 8 -11 153 -14 324 l-5 309 -73 41 c-41 22 -73 44 -73 49 0 9 96 55 117
56 6 0 47 -20 90 -44z"/>
<path d="M3732 6568 c3 -536 4 -586 21 -623 36 -80 93 -118 204 -135 44 -7
327 -9 798 -8 l730 3 3 123 3 122 -709 0 c-596 0 -711 2 -728 14 -18 14 -19
33 -22 550 l-3 536 -150 0 -150 0 3 -582z"/>
<path d="M5690 6475 l0 -676 148 3 147 3 3 673 2 672 -150 0 -150 0 0 -675z"/>
<path d="M6886 7135 c-22 -8 -52 -26 -67 -42 -22 -23 -679 -1268 -679 -1288 0
-3 78 -5 173 -5 l172 0 63 125 62 125 403 0 402 0 63 -125 62 -125 175 0 c101
0 175 4 175 9 0 5 -149 292 -331 638 -215 407 -341 637 -360 654 -16 14 -47
31 -68 38 -52 15 -197 13 -245 -4z m393 -822 c1 -10 -59 -13 -269 -13 -148 0
-270 2 -270 5 0 3 61 128 136 277 l136 273 134 -265 c73 -146 133 -271 133
-277z"/>
<path d="M8199 7136 c-69 -24 -107 -55 -133 -108 l-26 -52 0 -588 0 -588 150
0 150 0 2 546 3 545 321 -543 321 -543 125 -3 125 -3 317 538 c175 296 322
542 327 548 5 5 9 -211 9 -538 l0 -547 150 0 151 0 -3 593 c-3 589 -3 592 -25
633 -46 86 -127 124 -262 124 -94 0 -158 -27 -216 -91 -22 -24 -160 -248 -305
-497 -208 -357 -266 -450 -275 -439 -6 8 -125 212 -265 452 -140 241 -272 457
-293 480 -20 24 -61 55 -89 69 -44 22 -65 26 -137 26 -48 -1 -102 -7 -122 -14z"/>
<path d="M4560 5543 c-24 -12 -37 -28 -44 -51 -15 -53 14 -82 109 -108 80 -23
95 -34 95 -70 0 -77 -161 -81 -176 -4 -4 16 -13 30 -20 30 -23 0 -16 -38 14
-71 23 -25 38 -32 78 -36 92 -8 152 49 124 117 -12 29 -33 40 -139 72 -51 15
-67 34 -57 71 9 38 70 56 114 33 18 -9 34 -27 38 -41 3 -14 12 -25 20 -25 22
0 16 27 -13 60 -36 40 -93 49 -143 23z"/>
<path d="M6113 5546 c-90 -41 -108 -206 -31 -277 75 -71 181 -37 213 69 4 16
2 22 -9 22 -8 0 -17 -13 -21 -29 -13 -58 -84 -95 -135 -69 -68 36 -93 150 -47
219 47 70 115 74 167 11 32 -39 50 -37 32 2 -24 53 -109 79 -169 52z"/>
<path d="M9300 5541 c-51 -27 -75 -74 -75 -146 1 -100 43 -153 128 -162 91 -9
152 56 152 162 0 127 -103 201 -205 146z m134 -29 c30 -28 46 -68 46 -117 0
-85 -44 -138 -115 -138 -72 0 -115 53 -115 141 0 55 29 108 70 130 30 15 87 7
114 -16z"/>
<path d="M12961 5543 c-121 -61 -96 -284 35 -309 68 -13 126 27 149 104 5 16
2 22 -9 22 -9 0 -16 -8 -16 -19 0 -29 -46 -79 -80 -86 -67 -15 -130 53 -130
140 0 38 6 61 23 86 52 77 126 75 182 -6 18 -27 31 -12 17 19 -25 55 -111 80
-171 49z"/>
<path d="M14180 5541 c-51 -27 -75 -74 -75 -146 1 -100 43 -153 128 -162 91
-9 152 56 152 162 0 127 -103 201 -205 146z m134 -29 c30 -28 46 -68 46 -117
0 -85 -44 -138 -115 -138 -72 0 -115 53 -115 141 0 55 29 108 70 130 30 15 87
7 114 -16z"/>
<path d="M14950 5543 c-50 -26 -75 -75 -75 -148 1 -100 43 -153 128 -162 91
-9 152 56 152 162 -1 100 -43 153 -128 162 -28 3 -53 -2 -77 -14z m134 -32
c51 -45 62 -144 23 -202 -73 -108 -207 -52 -207 86 0 68 36 126 85 138 30 7
78 -3 99 -22z"/>
<path d="M15394 5546 c-73 -32 -105 -166 -59 -246 43 -73 138 -89 196 -34 l29
28 0 -27 c0 -15 5 -27 10 -27 6 0 10 32 10 75 l0 75 -65 0 c-37 0 -65 -4 -65
-10 0 -5 25 -10 56 -10 l56 0 -7 -27 c-11 -47 -33 -72 -74 -84 -32 -9 -44 -9
-74 6 -102 48 -84 246 24 270 39 9 94 -19 109 -56 14 -32 30 -39 30 -11 0 28
-30 63 -66 78 -41 17 -70 17 -110 0z"/>
<path d="M3760 5395 c0 -131 2 -155 15 -155 12 0 15 14 15 70 l0 70 63 0 c34
0 67 -4 73 -8 19 -13 34 -50 34 -86 0 -31 14 -55 25 -44 11 10 -10 113 -25
128 -16 16 -15 18 7 44 25 30 29 53 12 89 -16 36 -50 47 -139 47 l-80 0 0
-155z m186 110 c19 -25 18 -64 -3 -87 -13 -14 -31 -18 -85 -18 l-68 0 0 66 0
66 71 -4 c55 -3 74 -8 85 -23z"/>
<path d="M4160 5395 l0 -155 105 0 c63 0 105 4 105 10 0 6 -37 10 -90 10 l-90
0 0 65 0 65 85 0 c50 0 85 4 85 10 0 6 -35 10 -85 10 l-85 0 0 60 0 60 90 0
c53 0 90 4 90 10 0 6 -42 10 -105 10 l-105 0 0 -155z"/>
<path d="M4900 5395 l0 -155 105 0 c63 0 105 4 105 10 0 6 -37 10 -90 10 l-90
0 0 65 0 65 85 0 c50 0 85 4 85 10 0 6 -35 10 -85 10 l-85 0 0 60 0 60 90 0
c53 0 90 4 90 10 0 6 -42 10 -105 10 l-105 0 0 -155z"/>
<path d="M5303 5394 c-45 -114 -57 -154 -46 -152 8 2 23 23 32 48 l17 45 71 3
71 3 18 -51 c10 -28 24 -50 32 -50 8 0 12 6 9 13 -87 235 -114 297 -127 297
-10 0 -35 -51 -77 -156z m108 41 l28 -75 -60 0 c-32 0 -59 3 -59 7 0 14 55
151 60 147 2 -3 16 -38 31 -79z"/>
<path d="M5650 5395 c0 -131 2 -155 15 -155 12 0 15 14 15 70 l0 70 64 0 c85
0 100 -14 108 -104 2 -16 8 -31 15 -33 9 -3 11 9 6 49 -7 64 -18 88 -41 88
-13 0 -12 3 6 16 51 35 52 113 2 139 -19 10 -58 15 -110 15 l-80 0 0 -155z
m186 110 c19 -25 18 -64 -3 -87 -13 -14 -31 -18 -85 -18 l-68 0 0 66 0 66 71
-4 c55 -3 74 -8 85 -23z"/>
<path d="M6460 5395 c0 -131 2 -155 15 -155 12 0 15 15 15 75 l0 75 90 0 90 0
0 -75 c0 -60 3 -75 15 -75 13 0 15 24 15 155 0 131 -2 155 -15 155 -12 0 -15
-14 -15 -70 l0 -70 -90 0 -90 0 0 70 c0 56 -3 70 -15 70 -13 0 -15 -24 -15
-155z"/>
<path d="M7400 5395 l0 -155 68 0 c93 1 144 24 165 79 22 54 21 106 -2 157
-23 52 -74 74 -166 74 l-65 0 0 -155z m142 125 c56 -16 78 -51 78 -124 0 -71
-16 -101 -66 -122 -18 -8 -54 -14 -79 -14 l-45 0 0 135 0 135 38 0 c20 0 54
-5 74 -10z"/>
<path d="M7810 5395 l0 -155 105 0 c63 0 105 4 105 10 0 6 -37 10 -90 10 l-90
0 0 65 0 65 85 0 c50 0 85 4 85 10 0 6 -35 10 -85 10 l-85 0 0 60 0 60 90 0
c53 0 90 4 90 10 0 6 -42 10 -105 10 l-105 0 0 -155z"/>
<path d="M8198 5395 c41 -112 60 -155 72 -155 12 0 31 43 72 155 37 103 51
155 43 155 -12 0 -28 -40 -91 -217 -10 -29 -21 -53 -24 -53 -3 0 -18 37 -34
83 -56 160 -68 187 -80 187 -9 0 5 -50 42 -155z"/>
<path d="M8540 5395 l0 -155 105 0 c63 0 105 4 105 10 0 6 -37 10 -90 10 l-90
0 0 65 0 65 85 0 c50 0 85 4 85 10 0 6 -35 10 -85 10 l-85 0 0 60 0 60 90 0
c53 0 90 4 90 10 0 6 -42 10 -105 10 l-105 0 0 -155z"/>
<path d="M8900 5395 l0 -155 100 0 c60 0 100 4 100 10 0 6 -35 10 -85 10 l-85
0 0 145 c0 122 -2 145 -15 145 -13 0 -15 -24 -15 -155z"/>
<path d="M9670 5395 c0 -131 2 -155 15 -155 12 0 15 14 15 64 l0 64 75 4 c92
4 120 25 120 89 0 33 -6 46 -28 65 -25 21 -38 24 -113 24 l-84 0 0 -155z m186
110 c8 -10 14 -31 14 -45 0 -49 -21 -64 -99 -68 l-71 -4 0 72 0 72 71 -4 c55
-3 74 -8 85 -23z"/>
<path d="M10050 5396 c0 -131 2 -156 15 -156 12 0 15 24 17 132 l3 132 50
-129 c33 -85 55 -130 65 -130 10 0 32 45 65 129 l50 128 3 -131 c2 -107 5
-131 17 -131 13 0 15 25 15 156 0 154 0 155 -22 152 -18 -2 -31 -26 -73 -135
-27 -73 -52 -133 -55 -133 -3 0 -28 60 -55 133 -42 111 -54 133 -73 135 -22 3
-22 3 -22 -152z"/>
<path d="M10520 5395 l0 -155 105 0 c63 0 105 4 105 10 0 6 -37 10 -90 10
l-90 0 0 65 0 65 85 0 c50 0 85 4 85 10 0 6 -35 10 -85 10 l-85 0 0 60 0 60
90 0 c53 0 90 4 90 10 0 6 -42 10 -105 10 l-105 0 0 -155z"/>
<path d="M10880 5396 c0 -131 2 -156 15 -156 12 0 15 23 17 129 l3 129 85
-127 c47 -69 93 -127 103 -129 16 -3 17 9 17 152 0 131 -2 156 -15 156 -12 0
-15 -23 -17 -129 l-3 -128 -85 126 c-47 69 -94 127 -103 129 -15 3 -17 -11
-17 -152z"/>
<path d="M11250 5540 c0 -5 25 -10 55 -10 l55 0 0 -145 c0 -122 2 -145 15
-145 13 0 15 23 15 145 l0 145 55 0 c30 0 55 5 55 10 0 6 -48 10 -125 10 -77
0 -125 -4 -125 -10z"/>
<path d="M12140 5540 c0 -5 25 -10 55 -10 l55 0 0 -145 c0 -122 2 -145 15
-145 13 0 15 23 15 145 l0 145 55 0 c30 0 55 5 55 10 0 6 -48 10 -125 10 -77
0 -125 -4 -125 -10z"/>
<path d="M12530 5395 l0 -155 105 0 c63 0 105 4 105 10 0 6 -37 10 -90 10
l-90 0 0 65 0 65 85 0 c50 0 85 4 85 10 0 6 -35 10 -85 10 l-85 0 0 60 0 60
90 0 c53 0 90 4 90 10 0 6 -42 10 -105 10 l-105 0 0 -155z"/>
<path d="M13300 5395 c0 -131 2 -155 15 -155 12 0 15 15 15 75 l0 75 90 0 90
0 0 -75 c0 -60 3 -75 15 -75 13 0 15 24 15 155 0 131 -2 155 -15 155 -12 0
-15 -14 -15 -70 l0 -70 -90 0 -90 0 0 70 c0 56 -3 70 -15 70 -13 0 -15 -24
-15 -155z"/>
<path d="M13710 5396 c0 -132 2 -156 15 -156 13 0 15 21 15 132 l0 131 88
-129 c49 -71 96 -130 105 -132 15 -3 17 12 17 152 0 131 -2 156 -15 156 -12 0
-15 -23 -17 -129 l-3 -128 -86 126 c-48 69 -94 127 -103 129 -14 3 -16 -14
-16 -152z"/>
<path d="M14550 5395 l0 -155 100 0 c60 0 100 4 100 10 0 6 -35 10 -85 10
l-85 0 0 145 c0 122 -2 145 -15 145 -13 0 -15 -24 -15 -155z"/>
<path d="M15780 5460 c58 -86 60 -91 60 -155 0 -51 3 -65 15 -65 12 0 15 14
15 65 0 64 2 69 60 155 47 70 56 90 43 90 -11 -1 -33 -26 -58 -66 -60 -97 -58
-97 -112 -10 -30 47 -55 76 -66 76 -14 0 -4 -20 43 -90z"/>
<path d="M6990 5360 c0 -5 25 -10 55 -10 30 0 55 5 55 10 0 6 -25 10 -55 10
-30 0 -55 -4 -55 -10z"/>
<path d="M11760 5360 c0 -5 25 -10 55 -10 30 0 55 5 55 10 0 6 -25 10 -55 10
-30 0 -55 -4 -55 -10z"/>
</g>
</svg>
