<?xml version="1.0" standalone="no"?>
<!DOCTYPE svg PUBLIC "-//W3C//DTD SVG 20010904//EN"
 "http://www.w3.org/TR/2001/REC-SVG-20010904/DTD/svg10.dtd">
<svg version="1.0" xmlns="http://www.w3.org/2000/svg"
 width="2560.000000pt" height="1877.000000pt" viewBox="0 0 2560.000000 1877.000000"
 preserveAspectRatio="xMidYMid meet">

<g transform="translate(0.000000,1877.000000) scale(0.100000,-0.100000)"
fill="#000000" stroke="none">
<path d="M16925 17604 c-548 -27 -999 -73 -1485 -150 -2442 -388 -4766 -1441
-6445 -2920 -287 -253 -845 -823 -845 -864 0 -6 15 -31 33 -54 l33 -44 105 85
c761 620 1720 1187 2774 1638 2169 928 4611 1308 6685 1039 1886 -244 3402
-1012 4331 -2194 187 -237 306 -425 439 -693 485 -973 643 -2268 445 -3642
-168 -1166 -571 -2254 -1170 -3160 -103 -156 -245 -351 -342 -466 -34 -43 -63
-81 -63 -85 1 -5 20 -31 44 -57 l43 -48 300 295 c642 632 1131 1183 1558 1756
1481 1990 1788 3848 958 5809 -698 1650 -2148 2830 -4182 3401 -626 175 -1268
283 -2036 341 -135 10 -1038 20 -1180 13z"/>
<path d="M8510 15338 c-1268 -531 -2154 -1000 -3156 -1669 -1417 -945 -2587
-2074 -3373 -3254 -222 -333 -362 -574 -521 -897 -623 -1261 -794 -2491 -515
-3711 448 -1956 1990 -3432 4373 -4186 1767 -559 3955 -686 6242 -360 2424
344 4666 1096 6609 2214 1075 618 2015 1309 2903 2134 87 80 158 151 158 156
0 12 -72 85 -83 85 -3 0 -102 -71 -219 -158 -1924 -1433 -3873 -2349 -6223
-2927 -1929 -474 -3796 -646 -5535 -510 -1970 155 -3640 718 -4805 1619 -310
240 -650 578 -881 876 -695 895 -982 2028 -838 3305 259 2302 1936 4595 4694
6420 375 247 914 573 1237 746 46 24 83 49 83 56 0 19 -39 103 -47 102 -4 -1
-51 -19 -103 -41z"/>
<path d="M18140 12623 c-828 -58 -1506 -335 -1946 -795 -257 -270 -412 -565
-491 -935 -25 -118 -27 -147 -27 -363 -1 -190 2 -251 17 -320 132 -616 578
-1062 1467 -1463 275 -125 338 -156 459 -224 438 -248 591 -481 525 -801 -61
-298 -327 -499 -764 -579 -116 -21 -457 -23 -625 -5 -459 52 -894 183 -1284
388 -68 36 -125 64 -126 62 -6 -7 -515 -1151 -515 -1158 0 -15 132 -97 255
-158 470 -234 1076 -365 1752 -379 289 -6 452 3 698 38 837 120 1498 485 1862
1029 163 243 268 535 308 849 21 166 17 470 -9 601 -66 331 -218 605 -472 850
-249 240 -468 377 -1014 633 -421 197 -591 293 -754 426 -236 191 -307 442
-188 665 35 68 162 194 237 237 218 126 428 171 790 172 236 0 371 -13 590
-58 216 -45 513 -144 679 -227 32 -16 60 -27 63 -25 2 3 110 272 239 598 177
448 231 594 222 601 -25 15 -214 96 -312 132 -373 140 -898 219 -1416 214 -96
-1 -195 -3 -220 -5z"/>
<path d="M6380 12504 c0 -3 -274 -1461 -610 -3241 -335 -1779 -610 -3241 -610
-3249 0 -12 308 -14 2184 -14 2072 0 2185 1 2190 18 7 23 226 1188 226 1201 0
8 -444 11 -1455 11 -1379 0 -1455 1 -1455 18 1 9 63 346 138 747 l137 730
1305 3 1306 2 115 608 115 607 -1303 3 c-743 1 -1303 6 -1303 11 0 9 236 1271
245 1309 l5 22 1363 0 1362 0 118 603 c65 331 117 605 117 610 0 8 -4190 10
-4190 1z"/>
<path d="M11030 12505 c0 -9 -231 -1190 -236 -1207 -5 -17 38 -18 796 -18
l801 0 -7 -37 c-4 -21 -226 -1208 -493 -2638 l-486 -2600 719 -3 c396 -1 722
0 724 3 3 3 225 1181 494 2618 268 1436 490 2622 493 2635 l5 22 729 0 729 0
6 35 c13 65 58 189 102 279 78 158 147 251 298 401 252 251 491 407 751 491
l70 22 -2747 1 c-1512 1 -2748 -1 -2748 -4z"/>
<path d="M23063 5965 c-298 -77 -552 -329 -634 -630 -32 -115 -32 -345 0 -460
88 -326 356 -584 673 -649 96 -20 272 -21 371 -2 220 42 440 192 570 389 213
321 187 769 -60 1058 -137 160 -308 265 -495 303 -120 25 -311 21 -425 -9z
m427 -116 c264 -66 486 -295 551 -565 28 -117 23 -302 -11 -409 -82 -259 -290
-460 -545 -525 -95 -24 -266 -27 -370 -5 -197 41 -404 204 -505 397 -61 116
-82 209 -83 358 -1 148 20 238 86 364 58 114 209 265 322 323 177 91 358 111
555 62z"/>
<path d="M23103 5592 l-173 -2 0 -485 0 -485 85 0 85 0 0 191 0 191 143 -4
c150 -4 179 -12 224 -60 39 -42 55 -97 61 -210 l5 -108 76 0 76 0 -3 112 c-4
135 -12 171 -55 235 -30 44 -75 76 -142 99 -16 6 -13 8 18 15 129 29 187 105
187 243 0 102 -34 168 -109 213 -86 51 -163 60 -478 55z m273 -123 c78 -14
118 -40 138 -89 37 -93 5 -188 -79 -230 -46 -22 -61 -24 -190 -25 l-140 0 -3
178 -2 177 108 0 c60 0 135 -5 168 -11z"/>
</g>
</svg>
